<svg xmlns="http://www.w3.org/2000/svg" xmlns:xlink="http://www.w3.org/1999/xlink" width="158" height="109" viewBox="0 0 158 109"><defs><path id="a" d="M12.616 19.079V.015H.972V19.08h11.644z"/><path id="c" d="M0 .335V20.48h20.869V.335H0z"/><path id="e" d="M0 108.855h157.532V.729H0z"/></defs><g fill="none" fill-rule="evenodd"><path fill="#F39B03" d="M27.7 107.353h5.098c1.301 0 2.32-.247 3.06-.754.743-.494 1.341-1.406 1.785-2.723l.331.106-1.353 4.62H22.085v-.353h.447c.733.021 1.29-.117 1.665-.421.372-.304.559-.788.559-1.453V92.263c-.018-.648-.213-1.123-.575-1.413-.366-.287-.916-.446-1.65-.461h-.446v-.351h8.288v.35h-.442c-.754.016-1.31.175-1.678.462-.371.29-.552.765-.552 1.413v15.09zm16.842 0h5.095c1.299 0 2.315-.247 3.057-.754.745-.494 1.342-1.406 1.79-2.723l.321.106-1.345 4.62H38.92v-.353h.45c.734.021 1.286-.117 1.66-.421.376-.304.563-.788.563-1.453V92.263c-.02-.648-.21-1.123-.58-1.413-.366-.287-.909-.446-1.642-.461h-.45v-.351h8.29v.35h-.446c-.754.016-1.31.175-1.675.462-.364.29-.549.765-.549 1.413v15.09z"/><path fill="#004694" d="M67.17 89.79v5.976h-.353c-.069-1.335-.56-2.486-1.482-3.452-.926-.97-2.016-1.45-3.264-1.45-.866 0-1.577.26-2.146.775-.564.516-.852 1.107-.852 1.78 0 .613.224 1.204.662 1.774.444.567 1.855 1.543 4.236 2.929 1.632.962 2.762 1.926 3.398 2.875a5.61 5.61 0 0 1 .953 3.177c0 1.351-.55 2.466-1.65 3.344-1.106.87-2.517 1.315-4.247 1.335a7.878 7.878 0 0 1-2.402-.437c-.8-.278-1.349-.44-1.649-.484h-.424a1.13 1.13 0 0 0-.595.311.97.97 0 0 0-.306.61h-.348l.022-6.277h.352c.236 1.586.807 2.832 1.727 3.75.916.922 2.006 1.378 3.27 1.378 1 0 1.84-.243 2.52-.725.686-.484 1.028-1.169 1.028-2.053 0-.864-.293-1.65-.885-2.35-.595-.702-1.729-1.538-3.41-2.5-1.835-1.027-3.066-1.948-3.696-2.767a4.5 4.5 0 0 1-.95-2.81c0-1.404.513-2.546 1.545-3.413 1.033-.864 2.305-1.296 3.826-1.296a7.18 7.18 0 0 1 2.471.432c.797.294 1.285.439 1.45.439.198 0 .384-.078.563-.242.176-.173.283-.382.331-.63h.306zm8.453 8.558h8.52v-6.084c-.014-.648-.208-1.125-.573-1.415-.363-.285-.915-.444-1.651-.461h-.446v-.35h8.287v.35h-.446c-.745.017-1.304.176-1.666.461-.371.29-.554.767-.554 1.415v14.11c-.019.667.164 1.15.538 1.441.373.292.937.434 1.682.434h.446v.352h-8.287v-.352h.446c.736.022 1.293-.116 1.664-.42.376-.304.56-.788.56-1.455v-6.78h-8.52v6.78c-.015.667.166 1.15.54 1.441.378.292.937.434 1.686.434h.457v.352h-8.3v-.352h.449c.736.022 1.29-.116 1.658-.42.383-.304.564-.788.564-1.455v-14.11c-.014-.648-.209-1.125-.573-1.415-.366-.285-.913-.444-1.65-.461h-.448v-.35h8.3v.35h-.457c-.749.017-1.306.176-1.674.461-.369.29-.552.767-.552 1.415v6.084zm23.462 9.436c1.767 0 3.17-.786 4.21-2.348 1.04-1.557 1.563-3.561 1.563-6.017 0-2.667-.527-4.76-1.579-6.282-1.049-1.515-2.372-2.272-3.97-2.272-1.745 0-3.148.78-4.192 2.338-1.056 1.562-1.58 3.566-1.58 6.02 0 2.563.51 4.637 1.525 6.202 1.014 1.57 2.353 2.359 4.023 2.359m-.152 1.07c-2.496 0-4.556-.934-6.184-2.805-1.62-1.868-2.433-4.133-2.433-6.802-.014-2.67.838-4.918 2.574-6.732 1.736-1.818 3.925-2.725 6.57-2.725 2.498 0 4.56.921 6.18 2.766 1.633 1.84 2.44 4.121 2.44 6.84 0 2.803-.892 5.077-2.663 6.833-1.767 1.747-3.936 2.624-6.484 2.624m15.389-17.638v7.547c.114.03.245.031.39.031h.762c1.479 0 2.67-.352 3.558-1.062.886-.705 1.335-1.683 1.335-2.94 0-1.17-.383-2.099-1.149-2.804-.763-.696-1.768-1.049-2.998-1.049-.347 0-.68.025-.987.078a8.405 8.405 0 0 0-.911.199zm-5.62-1.179h8.418c2.083 0 3.649.382 4.694 1.14 1.051.76 1.574 1.948 1.574 3.567 0 1.216-.4 2.262-1.196 3.152-.797.88-1.872 1.44-3.215 1.676l5.063 6.534c.681.88 1.256 1.452 1.722 1.723.467.268 1.01.406 1.626.422v.352h-5.07l-6.399-8.758h-1.597v6.53c-.01.666.166 1.15.533 1.44.378.294.94.436 1.694.436h.447v.352h-8.295v-.352h.45c.732.02 1.288-.118 1.664-.422.372-.304.559-.788.559-1.455v-14.11c-.012-.647-.213-1.122-.575-1.413-.364-.287-.916-.446-1.647-.463h-.45v-.35zm33.198.001l.225 3.85-.371.053c-.218-.886-.544-1.54-.985-1.973-.447-.435-1.194-.662-2.266-.675h-5.094v6.952h4.748c.745 0 1.276-.219 1.582-.661.309-.443.472-1.108.486-1.994h.349v6.434h-.349c-.014-.864-.177-1.527-.486-1.975-.306-.454-.837-.677-1.582-.677h-4.748v7.98h5.094c1.298 0 2.32-.246 3.06-.752.743-.493 1.343-1.407 1.785-2.724l.331.106-1.35 4.62H127.79v-.35h.45c.73.02 1.29-.118 1.658-.422.373-.304.563-.788.563-1.455v-14.11c-.02-.648-.207-1.125-.575-1.415-.367-.285-.916-.444-1.646-.461h-.45v-.35h14.11z"/><g transform="translate(144.915 89.775)"><mask id="b" fill="#fff"><use xlink:href="#a"/></mask><path fill="#004694" d="M11.466.015v5.977h-.352c-.07-1.336-.56-2.487-1.485-3.452-.92-.97-2.006-1.45-3.264-1.45-.86 0-1.575.259-2.144.774-.563.517-.85 1.107-.85 1.78 0 .613.223 1.204.663 1.774.439.567 1.855 1.543 4.236 2.929 1.633.962 2.762 1.926 3.4 2.875.631.954.947 2.015.947 3.178 0 1.35-.547 2.465-1.65 3.343-1.1.87-2.518 1.315-4.247 1.336a7.903 7.903 0 0 1-2.398-.438c-.798-.278-1.347-.44-1.645-.483h-.43c-.224.043-.43.152-.602.31a1 1 0 0 0-.293.61h-.35l.024-6.277h.35c.233 1.586.807 2.832 1.725 3.75.913.922 2.005 1.379 3.264 1.379 1.004 0 1.846-.244 2.527-.726.685-.484 1.029-1.168 1.029-2.053 0-.864-.3-1.65-.892-2.35-.59-.701-1.725-1.538-3.407-2.5-1.838-1.026-3.063-1.947-3.7-2.766a4.51 4.51 0 0 1-.95-2.811c0-1.403.52-2.546 1.553-3.413C3.55.447 4.83.015 6.35.015c.845 0 1.67.142 2.473.432.794.294 1.274.439 1.446.439.199 0 .385-.078.566-.242.17-.173.28-.382.336-.629h.295z" mask="url(#b)"/></g><g transform="translate(0 88.12)"><mask id="d" fill="#fff"><use xlink:href="#c"/></mask><path fill="#F39B03" d="M11.027 13.959c-1.025-.527-1.957-.932-2.82-.932-.83 0-1.795.225-2.606.933l.335-.762c.909-.995 2.013-1.363 2.998-1.363.735 0 1.748.323 2.765.84.356.18.687.338 1.018.477l.635 1.484.052.126c-.681-.083-1.522-.38-2.377-.803zm-4.168-2.893c.77-.855 1.695-1.164 2.532-1.164.59 0 1.387.245 2.193.648l.697 1.606a8.536 8.536 0 0 1-1.12-.475c-.874-.435-1.656-.777-2.372-.777-.704 0-1.527.192-2.208.8l.278-.638zm.805-1.859c.637-.73 1.429-.993 2.133-.993.241 0 .534.058.843.145l.568 1.313c-.7-.354-1.33-.62-1.919-.62-.595 0-1.278.167-1.858.68l.233-.525zm.694-1.597c.476-.561 1.049-.806 1.59-.851l.335.77a1.88 1.88 0 0 0-.555-.084c-.499 0-1.073.141-1.553.585l.183-.42zm.956-2.218l.024-.047.219.507c-.235.115-.464.29-.67.537l.427-.997zm7.884 10.312l-.313-.735h-.008L10.378.335h-.267l-7.543 17.07c-.41.892-.81 1.55-1.19 1.98-.387.435-.844.671-1.379.723v.373h5.674v-.373c-.59.017-1.078-.083-1.46-.308-.384-.226-.575-.54-.575-.953 0-.102.008-.211.027-.32.016-.104.114-.368.292-.772l.866-2.005c1.085-1.192 2.398-1.627 3.58-1.627.87 0 2.066.378 3.28.998.087.045.172.089.267.125.022.017.051.03.077.045l.194.095.08.036.239.109c.012.002.02.005.024.012.09.045.174.07.264.12.02.01.038.015.057.015.067.04.136.062.205.086a.151.151 0 0 0 .064.03 2.326 2.326 0 0 0 .25.098c.086.026.176.057.26.086a.086.086 0 0 0 .028.004c.07.031.147.048.22.067.38.11.753.16 1.11.16.692 0 1.45-.122 2.188-.483l-.012-.022zm.262.6c-.877.827-1.872 1.212-2.82 1.302l.075.176c.07.175.123.342.162.515.033.173.054.375.054.608 0 .317-.168.574-.485.766-.323.18-.826.33-1.527.437v.373h7.95v-.373c-.768-.07-1.325-.26-1.675-.565-.345-.304-.758-1.016-1.24-2.137l-.494-1.103z" mask="url(#d)"/></g><path fill="#231815" d="M27.079 72.934l-1.432-3.8-1.48 3.8h2.912zm-1.008-4.506l2.906 7.407h-.758l-.9-2.303H23.95l-.89 2.303h-.752l2.974-7.407h.788z"/><g transform="translate(0 -.001)"><path fill="#231815" d="M36.212 68.429v5.343c0 .387-.035.708-.112.988-.08.273-.202.508-.371.682a1.49 1.49 0 0 1-.66.405c-.273.093-.613.134-1.014.134-.417 0-.764-.07-1.031-.205a1.757 1.757 0 0 1-.635-.563 2.214 2.214 0 0 1-.31-.81 5.08 5.08 0 0 1-.082-.942h.706c.005.162.019.35.03.568.016.225.061.437.142.64.087.196.22.364.411.514.19.14.47.206.835.206.274 0 .504-.031.68-.11a.92.92 0 0 0 .428-.336 1.59 1.59 0 0 0 .219-.601c.04-.24.058-.53.058-.868V68.43h.706zm1.96 4.893c.11.393.276.74.499 1.046a2.4 2.4 0 0 0 .868.743c.353.19.77.278 1.26.278.492 0 .91-.088 1.257-.278.353-.182.641-.43.864-.743.222-.306.393-.653.5-1.046.105-.387.152-.786.152-1.19a4.51 4.51 0 0 0-.152-1.189 3.255 3.255 0 0 0-.5-1.042 2.486 2.486 0 0 0-.864-.746c-.347-.182-.765-.277-1.256-.277-.49 0-.908.095-1.261.277-.36.186-.64.439-.868.746a3.326 3.326 0 0 0-.499 1.042 4.6 4.6 0 0 0 0 2.38m-.645-2.656a3.72 3.72 0 0 1 .654-1.222 3.148 3.148 0 0 1 1.095-.854c.435-.214.946-.317 1.524-.317.583 0 1.088.103 1.521.317.44.213.803.496 1.092.854.29.354.504.767.654 1.222.143.468.216.953.216 1.465 0 .513-.073 1-.216 1.468-.15.462-.364.87-.654 1.226-.29.345-.652.628-1.092.841-.433.21-.938.314-1.521.314-.578 0-1.089-.103-1.524-.314a3.265 3.265 0 0 1-1.095-.841 3.685 3.685 0 0 1-.654-1.226 4.872 4.872 0 0 1-.214-1.468c0-.512.067-.997.214-1.465"/><mask id="f" fill="#fff"><use xlink:href="#e"/></mask><path fill="#231815" d="M45.43 75.837h.707V68.43h-.706zm3.02-7.408l4.316 6.269h.016v-6.269h.709v7.407h-.788l-4.312-6.263h-.017v6.263h-.704V68.43zm11.588 0v.6h-2.583v6.807h-.704V69.03h-2.567v-.6zm3.512 0l2.403 6.628h.019l2.379-6.628h.743l-2.743 7.407h-.814l-2.735-7.407zm11.308 0v.6h-4.404v2.681h4.123v.603h-4.123v2.925h4.458v.598h-5.164V68.43zm1.812 0l4.309 6.269h.019v-6.269h.704v7.407h-.789l-4.304-6.263h-.019v6.263h-.707V68.43zm11.58 0v.6h-2.579v6.807h-.705V69.03h-2.567v-.6zm1.325 0v4.59c0 .424.048.787.146 1.088.095.306.238.546.428.741.181.185.41.328.68.415.264.088.578.126.904.126.352 0 .66-.038.928-.126.27-.087.499-.23.683-.415.19-.195.33-.435.423-.741.1-.3.152-.664.152-1.087v-4.591h.702v4.743c0 .384-.052.741-.164 1.082a2.244 2.244 0 0 1-.507.893c-.233.26-.526.465-.89.61-.361.154-.8.224-1.327.224-.502 0-.945-.07-1.303-.224a2.299 2.299 0 0 1-.888-.61 2.251 2.251 0 0 1-.51-.893 3.47 3.47 0 0 1-.16-1.082v-4.743h.703zm9.797 3.517c.217 0 .417-.035.617-.102.19-.06.36-.152.502-.277a1.46 1.46 0 0 0 .352-.454c.081-.177.124-.382.124-.607 0-.458-.127-.814-.39-1.08-.264-.26-.667-.397-1.205-.397h-2.628v2.917h2.628zm.056-3.517c.302 0 .589.042.861.11.268.084.511.194.715.353.205.16.365.358.488.605.124.246.183.532.183.859 0 .472-.118.881-.364 1.228-.238.344-.6.567-1.082.666v.019c.245.038.445.1.607.193.157.093.287.21.385.358.103.145.174.313.219.503.043.186.076.397.088.615.01.128.016.278.022.454.01.187.023.368.037.55.024.186.057.357.1.513.048.17.107.297.186.382h-.781a.888.888 0 0 1-.097-.254 1.47 1.47 0 0 1-.045-.31c-.019-.107-.026-.216-.033-.318-.005-.103-.014-.191-.019-.27a13.05 13.05 0 0 0-.065-.782 2.275 2.275 0 0 0-.2-.696 1.25 1.25 0 0 0-.433-.496c-.192-.12-.454-.175-.787-.159h-2.669v3.285h-.702v-7.408h3.386zm8.626 0v.6h-4.401v2.681h4.118v.603h-4.118v2.925h4.453v.598h-5.159V68.43zm3.926 0l1.68 6.483h.018l1.8-6.483h.88l1.816 6.483h.024l1.689-6.483h.7l-2.04 7.407h-.746l-1.877-6.628h-.017l-1.87 6.628h-.761l-2.053-7.407zm9.435 7.408h.704V68.43h-.704zm7.312-7.408v.6h-2.581v6.807h-.702V69.03h-2.57v-.6zm1.398 0v3.22h4.389v-3.22h.709v7.407h-.71V72.25h-4.388v3.587h-.704V68.43z" mask="url(#f)"/><path fill="#D70029" d="M0 1.731V27.2h4.408V10.09L17.93 27.2h3.668V1.73h-4.179v14.043L6.195 1.73zM139.517 16.54l3.183-7.981 3.22 7.98h-6.403zm1.536-14.808L130.84 27.199h4.442l2.785-7.024h9.31l2.828 7.024h7.158L147.036 1.732h-5.983zm-41.125 16.68c0 3.867-1.246 5.754-4.914 5.754-3.678 0-4.927-1.887-4.927-5.754V1.732h-6.549v16.68c0 6.827 4.067 9.792 10.58 9.792 6.503 0 10.545-2.965 10.545-9.792V1.732h-4.735v16.68m15.504-13.098h2.823c3.136 0 4.532 1.854 4.532 4.645 0 3.196-1.858 4.404-6.268 4.646l6.744 12.594h6.93l-6.13-11.21c3.327-1.13 5.207-3.07 5.207-6.996 0-4.12-3.31-7.262-7.907-7.262H108.92v25.468h6.512V5.314M37.053 24.707c-3.145 0-6.237-3.141-6.237-10.256 0-7.088 3.092-10.238 6.237-10.238 3.169 0 6.228 3.15 6.228 10.238 0 7.115-3.06 10.256-6.228 10.256m0-23.977c-8.423 0-12.561 6.36-12.561 13.72 0 7.392 4.138 13.754 12.56 13.754 8.41 0 12.565-6.362 12.565-13.753C49.617 7.09 45.461.73 37.053.73M72.91 27.2L63.158 1.73H58.05L48.593 27.2h4.589l6.367-17.234 6.473 17.233zm.306-25.469h-5.352l-1.623 4.374 2.326 6.085.81-2.224L75.7 27.2h7.253z" mask="url(#f)"/><path fill="#D70029" d="M61.327 18.298L58.056 27.2h4.168l1.237-3.36z" mask="url(#f)"/><path fill="#231815" d="M.874 35.395l4.315 6.272h.016v-6.272h.703v7.414h-.781L.812 36.54H.795v6.27H.088v-7.414zm7.836 2.648a1.787 1.787 0 0 0-.583.517 2.44 2.44 0 0 0-.355.73 2.947 2.947 0 0 0-.118.84c0 .284.037.559.118.835.082.273.196.518.355.733.152.216.35.385.583.518.238.131.507.2.818.2.312 0 .586-.069.818-.2a1.77 1.77 0 0 0 .588-.518c.159-.215.27-.46.352-.733a2.923 2.923 0 0 0 0-1.675 2.41 2.41 0 0 0-.352-.73 1.788 1.788 0 0 0-.588-.517 1.632 1.632 0 0 0-.818-.195c-.31 0-.58.064-.818.195m1.901-.52c.314.154.578.36.797.615.21.258.373.553.483.893.11.35.168.712.168 1.1 0 .385-.057.75-.168 1.095-.11.344-.272.643-.483.898a2.41 2.41 0 0 1-.797.607 2.487 2.487 0 0 1-1.083.223 2.5 2.5 0 0 1-1.082-.223 2.326 2.326 0 0 1-.792-.607 2.644 2.644 0 0 1-.488-.898 3.575 3.575 0 0 1-.164-1.096c0-.387.054-.75.164-1.099.112-.34.273-.635.488-.893a2.37 2.37 0 0 1 .792-.615c.314-.152.675-.23 1.082-.23.409 0 .774.078 1.083.23m3.02-.07v.9h.035c.174-.33.4-.585.678-.779.283-.186.636-.28 1.071-.28.354 0 .678.089.958.258.29.174.483.434.58.79.163-.356.39-.616.701-.79.313-.17.642-.258 1-.258 1.176 0 1.771.628 1.771 1.88v3.634h-.655v-3.603c0-.444-.095-.78-.28-1.014-.186-.233-.514-.344-.985-.344-.278 0-.516.05-.706.16a1.3 1.3 0 0 0-.448.431 1.879 1.879 0 0 0-.228.617c-.046.23-.067.474-.067.724v3.03h-.654v-3.635c0-.18-.017-.352-.055-.513a1.245 1.245 0 0 0-.192-.425.883.883 0 0 0-.341-.287 1.273 1.273 0 0 0-.532-.102c-.277 0-.519.047-.716.147a1.321 1.321 0 0 0-.5.417c-.13.176-.224.38-.285.622a3.06 3.06 0 0 0-.093.786v2.99h-.655v-5.356h.598zm11.767 5.355v-.966h-.018a1.85 1.85 0 0 1-.753.828c-.327.19-.697.283-1.097.283-.336 0-.624-.05-.862-.138a1.464 1.464 0 0 1-.584-.399 1.762 1.762 0 0 1-.326-.636 3.43 3.43 0 0 1-.098-.852v-3.474h.649v3.485c.015.484.122.85.34 1.1.213.25.572.377 1.09.377.286 0 .526-.062.723-.183.2-.12.367-.285.498-.484a2.13 2.13 0 0 0 .295-.688c.057-.264.097-.527.097-.801v-2.806H26v5.354h-.603zm2.436-5.355v1.255h.022c.164-.436.421-.772.77-1.01.35-.232.767-.34 1.252-.319v.655a1.966 1.966 0 0 0-.809.118 1.904 1.904 0 0 0-.63.397 1.838 1.838 0 0 0-.41.618 2.19 2.19 0 0 0-.147.787v2.854h-.647v-5.355h.599zm6.063 2.428c-.043.075-.12.13-.241.166a2.34 2.34 0 0 1-.308.073c-.276.05-.565.09-.854.126a4.902 4.902 0 0 0-.805.175 1.549 1.549 0 0 0-.595.323c-.156.145-.232.343-.232.61a.96.96 0 0 0 .097.442c.066.13.159.24.262.333.114.092.238.165.383.211.149.049.299.076.445.076.25 0 .489-.043.723-.12.225-.075.425-.182.59-.33.173-.146.31-.322.406-.528.1-.209.151-.444.151-.706v-.85h-.022zm-3.266-1.601c.107-.227.263-.413.454-.558.186-.147.407-.256.668-.32a3.18 3.18 0 0 1 .85-.109c.235 0 .47.023.702.07.237.04.449.129.633.255.187.126.339.3.458.522.117.228.177.518.177.88v2.843c0 .263.123.394.378.394.078 0 .15-.014.209-.041v.55c-.073.011-.14.023-.2.03a1.548 1.548 0 0 1-.221.012c-.166 0-.3-.026-.405-.067a.522.522 0 0 1-.232-.193.808.808 0 0 1-.108-.293 2.935 2.935 0 0 1-.023-.381h-.022a4.018 4.018 0 0 1-.357.463 1.812 1.812 0 0 1-.4.333 1.969 1.969 0 0 1-.513.21c-.19.05-.414.074-.678.074-.248 0-.481-.032-.706-.087a1.681 1.681 0 0 1-.567-.281 1.36 1.36 0 0 1-.378-.49 1.597 1.597 0 0 1-.145-.703c0-.371.085-.663.247-.874.17-.216.39-.378.666-.48.269-.116.58-.194.916-.237a78.95 78.95 0 0 1 1.047-.13 2.45 2.45 0 0 0 .36-.053.621.621 0 0 0 .256-.104.567.567 0 0 0 .164-.216.88.88 0 0 0 .058-.354c0-.225-.04-.403-.11-.543a.897.897 0 0 0-.3-.338 1.208 1.208 0 0 0-.443-.17 2.9 2.9 0 0 0-.546-.046c-.415 0-.754.095-1.02.292-.258.197-.396.515-.41.952h-.655c.017-.313.091-.579.196-.812zm12.21 1.623l-1.43-3.803-1.482 3.803h2.912zm-1.004-4.508l2.899 7.414h-.754l-.904-2.305h-3.366l-.892 2.305h-.749l2.978-7.414h.788zm6.529 3.1a1.012 1.012 0 0 0-.31-.368 1.173 1.173 0 0 0-.437-.214 2.01 2.01 0 0 0-.525-.066c-.143 0-.295.014-.443.047-.148.03-.285.081-.407.152a.813.813 0 0 0-.302.29.749.749 0 0 0-.112.434.64.64 0 0 0 .103.37c.073.098.17.18.276.252.11.07.237.13.364.173.131.045.252.083.36.109l.876.193c.186.033.367.08.55.154.185.074.347.166.488.282.142.119.26.27.345.437.093.176.136.378.136.613 0 .29-.063.538-.2.743a1.548 1.548 0 0 1-.498.5 2.08 2.08 0 0 1-.687.273 3.374 3.374 0 0 1-.759.084c-.63 0-1.135-.147-1.523-.446-.397-.297-.618-.775-.673-1.437h.654c.03.446.188.777.481 1.007.293.223.66.34 1.094.34.159 0 .322-.024.49-.055a1.47 1.47 0 0 0 .47-.178 1.09 1.09 0 0 0 .361-.314.795.795 0 0 0 .14-.475.764.764 0 0 0-.098-.4.857.857 0 0 0-.262-.266 1.593 1.593 0 0 0-.382-.184 6.65 6.65 0 0 0-.428-.125l-.841-.186a5.283 5.283 0 0 1-.592-.196 1.666 1.666 0 0 1-.471-.267 1.183 1.183 0 0 1-.32-.391 1.42 1.42 0 0 1-.113-.58c0-.268.062-.5.183-.693.122-.194.283-.351.476-.47a2.2 2.2 0 0 1 .645-.258c.236-.057.476-.085.71-.085.266 0 .518.039.751.108.231.064.438.172.613.321.172.145.315.323.42.536.102.216.158.47.173.76h-.65a1.278 1.278 0 0 0-.126-.524m4.988 0a1.075 1.075 0 0 0-.307-.368 1.232 1.232 0 0 0-.443-.214 1.996 1.996 0 0 0-.526-.066 2.07 2.07 0 0 0-.444.047c-.146.03-.283.081-.409.152a.82.82 0 0 0-.295.29.725.725 0 0 0-.115.434c0 .145.033.266.107.37a.97.97 0 0 0 .278.252c.107.07.227.13.358.173.13.045.25.083.366.109l.865.193c.191.033.374.08.558.154.183.074.347.166.487.282.141.119.26.27.35.437.086.176.131.378.131.613 0 .29-.064.538-.195.743-.134.204-.3.372-.503.5a2.1 2.1 0 0 1-.685.273 3.456 3.456 0 0 1-.761.084c-.632 0-1.144-.147-1.532-.446-.387-.297-.61-.775-.663-1.437h.647c.033.446.194.777.485 1.007.292.223.657.34 1.094.34.157 0 .323-.024.492-.055.169-.036.33-.093.472-.178.145-.083.26-.186.356-.314a.772.772 0 0 0 .14-.475.732.732 0 0 0-.099-.4.794.794 0 0 0-.259-.266 1.625 1.625 0 0 0-.38-.184 5.702 5.702 0 0 0-.434-.125l-.835-.186a4.692 4.692 0 0 1-.593-.196 1.666 1.666 0 0 1-.471-.267 1.108 1.108 0 0 1-.314-.391 1.267 1.267 0 0 1-.12-.58c0-.268.063-.5.187-.693.116-.194.274-.351.47-.47.19-.116.41-.204.651-.258.233-.057.473-.085.706-.085.267 0 .52.039.752.108.23.064.435.172.614.321.174.145.307.323.413.536.105.216.167.47.182.76h-.655a1.306 1.306 0 0 0-.123-.524m5.622.544a2.117 2.117 0 0 0-.338-.612 1.723 1.723 0 0 0-.53-.422 1.486 1.486 0 0 0-.702-.157c-.272 0-.51.05-.717.157-.206.11-.382.25-.528.422a2.245 2.245 0 0 0-.349.615 3.135 3.135 0 0 0-.172.715h3.466a2.476 2.476 0 0 0-.13-.718m-3.236 1.999c.069.252.172.478.314.68.146.2.331.365.548.496.225.133.492.203.804.203.473 0 .846-.128 1.118-.377.27-.25.456-.586.56-.997h.651c-.14.608-.391 1.082-.759 1.412-.372.333-.89.499-1.57.499-.422 0-.788-.074-1.093-.223a1.95 1.95 0 0 1-.75-.613 2.573 2.573 0 0 1-.432-.902 4.08 4.08 0 0 1-.143-1.087c0-.35.048-.698.143-1.037.091-.34.236-.644.431-.91.19-.263.438-.479.75-.641.306-.165.672-.248 1.094-.248.428 0 .792.09 1.098.258.303.174.55.4.74.684.19.282.327.601.41.963.081.368.121.736.102 1.105H55.64c0 .24.036.484.1.735m7.024-3.585v.545h-1.09v3.616c0 .213.036.384.087.503.062.123.206.192.442.2.188 0 .376-.008.56-.029v.551c-.1 0-.194 0-.287.009-.102.007-.197.014-.294.014-.436 0-.738-.087-.909-.26-.18-.169-.257-.478-.25-.934v-3.67h-.937v-.545h.937v-1.615h.65v1.615h1.09zm4.96-2.058l2.46 6.5 2.55-6.5h1.038v7.414h-.709v-6.405h-.017l-2.53 6.405h-.664l-2.434-6.405h-.022v6.405h-.704v-7.414zM78.5 39.881c-.044.075-.122.13-.244.166a2.37 2.37 0 0 1-.306.073c-.277.05-.567.09-.857.126a4.93 4.93 0 0 0-.806.175 1.554 1.554 0 0 0-.593.323c-.157.145-.233.343-.233.61 0 .165.035.314.097.442a1.08 1.08 0 0 0 .652.544c.14.049.288.076.445.076.243 0 .48-.043.712-.12a1.7 1.7 0 0 0 .599-.33c.164-.146.3-.322.4-.528.105-.209.154-.444.154-.706v-.85h-.02zm-3.27-1.601c.112-.227.266-.413.454-.558.19-.147.41-.256.665-.32.256-.07.537-.109.851-.109.236 0 .473.023.707.07.233.04.445.129.63.255.19.126.34.3.457.522.118.228.176.518.176.88v2.843c0 .263.131.394.381.394a.52.52 0 0 0 .21-.041v.55c-.075.011-.14.023-.203.03a1.564 1.564 0 0 1-.22.012 1.05 1.05 0 0 1-.4-.067.556.556 0 0 1-.237-.193.696.696 0 0 1-.105-.293 2.386 2.386 0 0 1-.033-.381h-.014a4.018 4.018 0 0 1-.357.463 1.626 1.626 0 0 1-.405.333 1.92 1.92 0 0 1-.506.21 2.71 2.71 0 0 1-.68.074c-.252 0-.483-.032-.702-.087a1.643 1.643 0 0 1-.57-.281 1.393 1.393 0 0 1-.382-.49 1.622 1.622 0 0 1-.142-.703c0-.371.085-.663.249-.874a1.49 1.49 0 0 1 .659-.48c.274-.116.583-.194.923-.237.341-.045.686-.088 1.04-.13a2.42 2.42 0 0 0 .362-.053.682.682 0 0 0 .264-.104.685.685 0 0 0 .16-.216.915.915 0 0 0 .058-.354 1.17 1.17 0 0 0-.11-.543.86.86 0 0 0-.303-.338 1.148 1.148 0 0 0-.446-.17 2.837 2.837 0 0 0-.542-.046c-.418 0-.75.095-1.018.292-.266.197-.4.515-.409.952h-.659c.02-.313.088-.579.197-.812zm5.889-.827v.921h.028c.117-.323.338-.587.655-.782a1.944 1.944 0 0 1 1.052-.298c.368 0 .678.052.934.146.253.1.454.236.605.407.154.18.26.398.321.654.062.254.092.542.092.862v3.445h-.65v-3.34c0-.233-.02-.442-.061-.643a1.28 1.28 0 0 0-.218-.511 1.096 1.096 0 0 0-.42-.346 1.604 1.604 0 0 0-.656-.12 1.7 1.7 0 0 0-.704.138 1.51 1.51 0 0 0-.516.385 1.691 1.691 0 0 0-.334.58 2.544 2.544 0 0 0-.128.733v3.124h-.654v-5.355h.654zm8.324 2.428c-.041.075-.122.13-.24.166a2.445 2.445 0 0 1-.312.073c-.274.05-.559.09-.852.126a5 5 0 0 0-.804.175 1.617 1.617 0 0 0-.599.323c-.155.145-.229.343-.229.61a.92.92 0 0 0 .097.442c.067.13.155.24.262.333a1.368 1.368 0 0 0 .831.287c.252 0 .483-.043.716-.12a1.65 1.65 0 0 0 1-.857c.098-.21.153-.445.153-.707v-.85h-.023zm-3.269-1.601c.116-.227.26-.413.456-.558.188-.147.41-.256.667-.32a3.14 3.14 0 0 1 .849-.109c.238 0 .47.023.707.07.233.04.444.129.632.255s.34.3.45.522c.12.228.181.518.181.88v2.843c0 .263.13.394.38.394a.524.524 0 0 0 .212-.041v.55l-.202.03a1.723 1.723 0 0 1-.228.012 1.12 1.12 0 0 1-.402-.067.593.593 0 0 1-.23-.193.805.805 0 0 1-.104-.293 2.416 2.416 0 0 1-.026-.381h-.024a3.59 3.59 0 0 1-.356.463 1.789 1.789 0 0 1-.909.542c-.193.05-.42.075-.683.075a2.81 2.81 0 0 1-.697-.087 1.427 1.427 0 0 1-.96-.77 1.704 1.704 0 0 1-.134-.704c0-.371.08-.663.249-.874.167-.216.384-.378.657-.48.272-.116.581-.194.923-.237.34-.045.69-.088 1.042-.13a2.66 2.66 0 0 0 .362-.053c.1-.02.19-.054.259-.104a.559.559 0 0 0 .16-.216.909.909 0 0 0 .06-.354c0-.225-.036-.403-.111-.543a.852.852 0 0 0-.299-.338 1.182 1.182 0 0 0-.445-.17 2.912 2.912 0 0 0-.545-.046c-.418 0-.754.095-1.018.292-.262.197-.402.515-.414.952h-.652a2.32 2.32 0 0 1 .193-.812zm8.141 3.732c.215-.121.391-.277.538-.479.145-.193.255-.418.324-.677.071-.258.11-.518.11-.788 0-.266-.032-.527-.09-.793a2.37 2.37 0 0 0-.303-.715 1.59 1.59 0 0 0-.538-.517c-.212-.131-.474-.195-.788-.195-.313 0-.578.06-.8.188-.218.131-.4.3-.55.506a2.113 2.113 0 0 0-.313.709c-.066.271-.102.54-.102.817 0 .27.036.53.107.788.07.26.176.484.322.677a1.603 1.603 0 0 0 1.335.662c.282 0 .53-.062.748-.183m1.497 1.429a2.106 2.106 0 0 1-.409.808c-.188.223-.428.39-.733.514-.298.115-.666.176-1.102.176-.27 0-.533-.035-.785-.095a2.4 2.4 0 0 1-.694-.29 1.822 1.822 0 0 1-.507-.508c-.135-.2-.212-.45-.235-.731h.654c.038.202.099.37.204.502.1.139.222.248.366.327.136.085.296.145.467.187.176.034.354.053.53.053.609 0 1.049-.17 1.313-.52.274-.344.407-.843.407-1.493v-.727h-.02c-.151.332-.374.6-.667.803a1.82 1.82 0 0 1-1.033.3c-.426 0-.794-.073-1.104-.215a2.06 2.06 0 0 1-.744-.584 2.323 2.323 0 0 1-.431-.878 4.036 4.036 0 0 1-.137-1.076c0-.363.052-.712.16-1.042a2.73 2.73 0 0 1 .468-.864c.204-.24.458-.436.756-.58a2.44 2.44 0 0 1 1.032-.213 1.78 1.78 0 0 1 1.049.318c.141.098.272.217.384.345.116.137.206.275.268.417h.019v-.921h.652v4.917c0 .396-.043.752-.128 1.07m5.092-4.402a2.016 2.016 0 0 0-.343-.612 1.65 1.65 0 0 0-.527-.422 1.498 1.498 0 0 0-.7-.157c-.273 0-.512.05-.72.157a1.81 1.81 0 0 0-.53.422 2.429 2.429 0 0 0-.344.615 3.131 3.131 0 0 0-.17.715h3.46a2.312 2.312 0 0 0-.126-.718m-3.235 1.999c.064.252.17.478.316.68.145.2.328.365.548.496.221.133.489.203.8.203.475 0 .846-.128 1.114-.377.27-.25.459-.586.564-.997h.652c-.138.608-.393 1.082-.76 1.412-.372.333-.896.499-1.57.499-.427 0-.79-.074-1.095-.223a2.032 2.032 0 0 1-.755-.613 2.693 2.693 0 0 1-.428-.902 4.226 4.226 0 0 1-.14-1.087 4 4 0 0 1 .14-1.037c.095-.34.236-.644.428-.91.195-.263.447-.479.755-.641.306-.165.668-.248 1.096-.248.424 0 .788.09 1.094.258.305.174.553.4.743.684.192.282.328.601.407.963.085.368.12.736.104 1.105h-4.113c0 .24.031.484.1.735m5.498-3.585v.9h.03c.174-.33.403-.585.678-.779.28-.186.638-.28 1.07-.28.36 0 .675.089.962.258.285.174.481.434.574.79.157-.356.399-.616.7-.79a2.08 2.08 0 0 1 1-.258c1.183 0 1.771.628 1.771 1.88v3.634h-.648v-3.603c0-.444-.097-.78-.283-1.014-.188-.233-.514-.344-.982-.344-.286 0-.523.05-.707.16-.188.106-.335.25-.449.431a1.92 1.92 0 0 0-.23.617c-.046.23-.07.474-.07.724v3.03h-.654v-3.635c0-.18-.01-.352-.053-.513a1.12 1.12 0 0 0-.187-.425.874.874 0 0 0-.35-.287 1.237 1.237 0 0 0-.53-.102c-.275 0-.513.047-.717.147a1.28 1.28 0 0 0-.492.417c-.133.176-.23.38-.29.622-.062.24-.094.503-.094.786v2.99h-.653v-5.356h.604zm11.745 1.586a1.867 1.867 0 0 0-.339-.612 1.689 1.689 0 0 0-.526-.422 1.498 1.498 0 0 0-.7-.157 1.536 1.536 0 0 0-1.244.579c-.152.183-.26.387-.352.615a2.875 2.875 0 0 0-.167.715h3.46a2.268 2.268 0 0 0-.132-.718m-3.228 1.999a1.838 1.838 0 0 0 .86 1.177c.223.132.489.202.803.202.474 0 .849-.128 1.12-.377.263-.25.452-.586.557-.997h.652c-.136.608-.388 1.082-.764 1.412-.37.333-.892.499-1.565.499-.428 0-.79-.074-1.1-.223a2.037 2.037 0 0 1-.748-.613 2.6 2.6 0 0 1-.43-.902 3.976 3.976 0 0 1 0-2.124c.092-.34.237-.644.43-.91.192-.263.447-.479.749-.641.309-.165.671-.248 1.099-.248.426 0 .795.09 1.095.258.306.174.552.4.737.684.195.282.335.601.416.963.08.368.114.736.1 1.105h-4.111c0 .24.027.484.1.735m5.536-3.585v.921h.022a1.54 1.54 0 0 1 .66-.782 1.95 1.95 0 0 1 1.046-.298c.376 0 .689.052.939.146.252.1.455.236.607.407.154.18.26.398.324.654.06.254.088.542.088.862v3.445h-.652v-3.34a2.8 2.8 0 0 0-.06-.643 1.356 1.356 0 0 0-.216-.511 1.096 1.096 0 0 0-.42-.346 1.59 1.59 0 0 0-.661-.12c-.263 0-.492.046-.697.138-.207.095-.38.22-.514.385a1.667 1.667 0 0 0-.337.58 2.38 2.38 0 0 0-.13.733v3.124h-.651v-5.355h.652zm7.045 0v.545h-1.081v3.616c0 .213.022.384.086.503.059.123.205.192.44.2.181 0 .374-.008.555-.029v.551c-.094 0-.193 0-.286.009a4.213 4.213 0 0 1-.293.014c-.435 0-.737-.087-.91-.26-.175-.169-.256-.478-.25-.934v-3.67h-.936v-.545h.936v-1.615h.658v1.615h1.081zm9.022-2.058v.603h-2.582v6.811H130v-6.811h-2.574v-.603zm2.819 4.486c-.043.075-.13.13-.242.166-.117.035-.22.059-.308.073-.277.05-.565.09-.856.126-.295.041-.56.098-.802.175a1.63 1.63 0 0 0-.599.323c-.154.145-.233.343-.233.61a.92.92 0 0 0 .102.442 1.08 1.08 0 0 0 .645.544c.148.049.295.076.443.076.252 0 .492-.043.72-.12a1.7 1.7 0 0 0 .595-.33c.166-.146.305-.322.405-.528.1-.209.152-.444.152-.706v-.85h-.022zm-3.27-1.601c.111-.227.263-.413.456-.558a1.76 1.76 0 0 1 .67-.32c.251-.07.533-.109.85-.109.23 0 .467.023.706.07.229.04.441.129.624.255.19.126.345.3.462.522.116.228.176.518.176.88v2.843c0 .263.13.394.382.394a.518.518 0 0 0 .208-.041v.55c-.076.011-.143.023-.201.03a1.702 1.702 0 0 1-.225.012c-.164 0-.3-.026-.4-.067a.518.518 0 0 1-.233-.193.675.675 0 0 1-.107-.293 2.416 2.416 0 0 1-.026-.381h-.019a4.95 4.95 0 0 1-.36.463 1.744 1.744 0 0 1-.404.333 1.92 1.92 0 0 1-.505.21c-.194.05-.416.074-.684.074-.245 0-.48-.032-.697-.087a1.593 1.593 0 0 1-.57-.281 1.402 1.402 0 0 1-.387-.49 1.676 1.676 0 0 1-.135-.703c0-.371.081-.663.244-.874a1.47 1.47 0 0 1 .66-.48c.271-.116.58-.194.923-.237.344-.045.69-.088 1.039-.13a2.47 2.47 0 0 0 .364-.053.59.59 0 0 0 .259-.104.585.585 0 0 0 .164-.216.912.912 0 0 0 .058-.354c0-.225-.04-.403-.115-.543a.8.8 0 0 0-.297-.338 1.19 1.19 0 0 0-.447-.17 2.85 2.85 0 0 0-.542-.046c-.414 0-.753.095-1.016.292-.264.197-.4.515-.415.952h-.65c.015-.313.082-.579.19-.812zm5.261 4.528h.65v-5.355h-.65v5.355zm0-6.36h.65v-1.053h-.65v1.052zm2.057 1.005l1.368 4.586h.023l1.31-4.586h.732l1.308 4.586h.017l1.375-4.586h.69l-1.721 5.355h-.715l-1.314-4.504h-.026l-1.301 4.504h-.718l-1.723-5.355zm10.929 2.428c-.041.075-.124.13-.238.166a2.784 2.784 0 0 1-.316.073c-.27.05-.557.09-.85.126a4.96 4.96 0 0 0-.804.175 1.6 1.6 0 0 0-.599.323c-.155.145-.233.343-.233.61 0 .165.031.314.099.442.067.13.157.24.265.333.118.092.242.165.383.211.145.049.29.076.449.076.245 0 .485-.043.71-.12a1.648 1.648 0 0 0 1-.858 1.64 1.64 0 0 0 .153-.706v-.85h-.019zm-3.264-1.601c.105-.227.255-.413.447-.558.193-.147.416-.256.67-.32.256-.07.54-.109.852-.109.234 0 .47.023.703.07.232.04.449.129.632.255.186.126.34.3.457.522.116.228.173.518.173.88v2.843c0 .263.13.394.386.394a.482.482 0 0 0 .204-.041v.55c-.075.011-.14.023-.199.03a1.655 1.655 0 0 1-.228.012c-.163 0-.293-.026-.393-.067a.546.546 0 0 1-.236-.193.81.81 0 0 1-.11-.293 3.29 3.29 0 0 1-.021-.381h-.025a3.829 3.829 0 0 1-.355.463 1.67 1.67 0 0 1-.405.333c-.147.092-.32.16-.508.21-.188.05-.417.074-.678.074-.25 0-.484-.032-.698-.087a1.51 1.51 0 0 1-.568-.281 1.354 1.354 0 0 1-.39-.49 1.702 1.702 0 0 1-.14-.703c0-.371.087-.663.25-.874.165-.216.387-.378.66-.48.274-.116.581-.194.921-.237.342-.045.692-.088 1.042-.13a2.62 2.62 0 0 0 .362-.053.618.618 0 0 0 .26-.104.563.563 0 0 0 .161-.216.915.915 0 0 0 .057-.354c0-.225-.038-.403-.105-.543a.864.864 0 0 0-.304-.338 1.14 1.14 0 0 0-.445-.17 2.893 2.893 0 0 0-.543-.046c-.416 0-.754.095-1.018.292-.259.197-.402.515-.414.952h-.656c.023-.313.09-.579.202-.812zm5.886-.827v.921h.022a1.54 1.54 0 0 1 .66-.782 1.951 1.951 0 0 1 1.046-.298c.376 0 .685.052.937.146.254.1.455.236.61.407.153.18.26.398.32.654.065.254.093.542.093.862v3.445h-.652v-3.34c0-.233-.02-.442-.062-.643a1.358 1.358 0 0 0-.218-.511 1.085 1.085 0 0 0-.417-.346 1.587 1.587 0 0 0-.66-.12c-.263 0-.494.046-.7.138-.21.095-.377.22-.522.385a1.8 1.8 0 0 0-.33.58 2.486 2.486 0 0 0-.127.733v3.124h-.656v-5.355h.656z" mask="url(#f)"/></g></g></svg>